<svg xmlns="http://www.w3.org/2000/svg" viewBox="0 0 512 512">
  <defs>
    <radialGradient id="felt" cx="50%" cy="35%" r="75%">
      <stop offset="0" stop-color="#1f6b45"/>
      <stop offset="1" stop-color="#0d3b26"/>
    </radialGradient>
  </defs>
  <rect width="512" height="512" rx="112" fill="url(#felt)"/>
  <rect x="146" y="96" width="220" height="308" rx="28" fill="#fbf7ec" transform="rotate(-8 256 250)"/>
  <path d="M256 170c-40 52-92 82-92 128 0 30 24 50 52 50 16 0 30-7 38-18-2 26-10 44-26 58h56c-16-14-24-32-26-58 8 11 22 18 38 18 28 0 52-20 52-50 0-46-52-76-92-128z" fill="#1a1a1a" transform="rotate(-8 256 250)"/>
  <circle cx="392" cy="400" r="44" fill="#d8b45a"/>
  <circle cx="392" cy="400" r="30" fill="none" stroke="#1f1a0e" stroke-width="6" stroke-dasharray="10 8"/>
</svg>
